REM DIRINDEX 1\2\3,1\2\4,1\2\5,1\2\6
REM DIRNAME cjc157,folder01,folder02,folder03,folder04,folder05
TITLE ""
FILE "118 118.mp3" MP3
  TRACK 01 AUDIO
    TITLE "0:"
    INDEX 01 00:00:00
  TRACK 02 AUDIO
    TITLE "3:cjc157_4389"
    INDEX 01 00:00:11
  TRACK 03 AUDIO
    TITLE "0:"
    INDEX 01 00:01:11
  TRACK 04 AUDIO
    TITLE "4:cjc157_4390"
    INDEX 01 00:01:56
  TRACK 05 AUDIO
    TITLE "0:"
    INDEX 01 00:02:73
  TRACK 06 AUDIO
    TITLE "5:cjc157_4391"
    INDEX 01 00:03:51
  TRACK 07 AUDIO
    TITLE "0:"
    INDEX 01 00:06:18
  TRACK 08 AUDIO
    TITLE "5:cjc157_4392"
    INDEX 01 00:06:65
  TRACK 09 AUDIO
    TITLE "0:"
    INDEX 01 00:09:08
  TRACK 10 AUDIO
    TITLE "3:cjc157_4393"
    INDEX 01 00:09:51
  TRACK 11 AUDIO
    TITLE "0:"
    INDEX 01 00:11:03
  TRACK 12 AUDIO
    TITLE "4:cjc157_4394"
    INDEX 01 00:11:46
  TRACK 13 AUDIO
    TITLE "0:"
    INDEX 01 00:12:60
  TRACK 14 AUDIO
    TITLE "5:cjc157_4395"
    INDEX 01 00:13:30
  TRACK 15 AUDIO
    TITLE "0:"
    INDEX 01 00:15:64
  TRACK 16 AUDIO
    TITLE "5:cjc157_4396"
    INDEX 01 00:16:34
  TRACK 17 AUDIO
    TITLE "0:"
    INDEX 01 00:18:25
  TRACK 18 AUDIO
    TITLE "5:cjc157_4397"
    INDEX 01 00:18:70
  TRACK 19 AUDIO
    TITLE "0:"
    INDEX 01 00:21:09
  TRACK 20 AUDIO
    TITLE "3:cjc157_4398"
    INDEX 01 00:21:57
  TRACK 21 AUDIO
    TITLE "0:"
    INDEX 01 00:23:03
  TRACK 22 AUDIO
    TITLE "4:cjc157_4399"
    INDEX 01 00:23:50
  TRACK 23 AUDIO
    TITLE "0:"
    INDEX 01 00:24:51
  TRACK 24 AUDIO
    TITLE "5:cjc157_4400"
    INDEX 01 00:25:21
  TRACK 25 AUDIO
    TITLE "0:"
    INDEX 01 00:27:04
  TRACK 26 AUDIO
    TITLE "5:cjc157_4401"
    INDEX 01 00:27:49
  TRACK 27 AUDIO
    TITLE "0:"
    INDEX 01 00:29:54
  TRACK 28 AUDIO
    TITLE "5:cjc157_4402"
    INDEX 01 00:30:30
  TRACK 29 AUDIO
    TITLE "0:"
    INDEX 01 00:32:03
  TRACK 30 AUDIO
    TITLE "3:cjc157_4403"
    INDEX 01 00:32:48
  TRACK 31 AUDIO
    TITLE "0:"
    INDEX 01 00:34:00
  TRACK 32 AUDIO
    TITLE "4:cjc157_4404"
    INDEX 01 00:34:42
  TRACK 33 AUDIO
    TITLE "0:"
    INDEX 01 00:35:51
  TRACK 34 AUDIO
    TITLE "5:cjc157_4405"
    INDEX 01 00:36:23
  TRACK 35 AUDIO
    TITLE "0:"
    INDEX 01 00:38:00
  TRACK 36 AUDIO
    TITLE "5:cjc157_4406"
    INDEX 01 00:38:47
  TRACK 37 AUDIO
    TITLE "0:"
    INDEX 01 00:41:22
  TRACK 38 AUDIO
    TITLE "3:cjc157_4407"
    INDEX 01 00:41:67
  TRACK 39 AUDIO
    TITLE "0:"
    INDEX 01 00:43:17
  TRACK 40 AUDIO
    TITLE "4:cjc157_4408"
    INDEX 01 00:43:64
  TRACK 41 AUDIO
    TITLE "0:"
    INDEX 01 00:44:65
  TRACK 42 AUDIO
    TITLE "5:cjc157_4409"
    INDEX 01 00:45:57
  TRACK 43 AUDIO
    TITLE "0:"
    INDEX 01 00:48:06
  TRACK 44 AUDIO
    TITLE "3:cjc157_4410"
    INDEX 01 00:48:57
  TRACK 45 AUDIO
    TITLE "0:"
    INDEX 01 00:49:72
  TRACK 46 AUDIO
    TITLE "4:cjc157_4411"
    INDEX 01 00:50:46
  TRACK 47 AUDIO
    TITLE "0:"
    INDEX 01 00:51:62
  TRACK 48 AUDIO
    TITLE "5:cjc157_4412"
    INDEX 01 00:52:51
  TRACK 49 AUDIO
    TITLE "0:"
    INDEX 01 00:54:64
  TRACK 50 AUDIO
    TITLE "5:cjc157_4413"
    INDEX 01 00:55:34
  TRACK 51 AUDIO
    TITLE "0:"
    INDEX 01 00:57:52
  TRACK 52 AUDIO
    TITLE "3:cjc157_4414"
    INDEX 01 00:58:20
  TRACK 53 AUDIO
    TITLE "0:"
    INDEX 01 00:59:26
  TRACK 54 AUDIO
    TITLE "4:cjc157_4415"
    INDEX 01 00:59:69
  TRACK 55 AUDIO
    TITLE "0:"
    INDEX 01 01:01:05
  TRACK 56 AUDIO
    TITLE "5:cjc157_4416"
    INDEX 01 01:01:50
  TRACK 57 AUDIO
    TITLE "0:"
    INDEX 01 01:05:17
  TRACK 58 AUDIO
    TITLE "5:cjc157_4417"
    INDEX 01 01:05:62
  TRACK 59 AUDIO
    TITLE "0:"
    INDEX 01 01:07:51
  TRACK 60 AUDIO
    TITLE "3:cjc157_4418"
    INDEX 01 01:08:23
  TRACK 61 AUDIO
    TITLE "0:"
    INDEX 01 01:09:40
  TRACK 62 AUDIO
    TITLE "4:cjc157_4419"
    INDEX 01 01:10:12
  TRACK 63 AUDIO
    TITLE "0:"
    INDEX 01 01:11:31
  TRACK 64 AUDIO
    TITLE "5:cjc157_4420"
    INDEX 01 01:12:01
  TRACK 65 AUDIO
    TITLE "0:"
    INDEX 01 01:14:53
  TRACK 66 AUDIO
    TITLE "5:cjc157_4421"
    INDEX 01 01:15:27
  TRACK 67 AUDIO
    TITLE "0:"
    INDEX 01 01:17:55
  TRACK 68 AUDIO
    TITLE "3:cjc157_4422"
    INDEX 01 01:18:33
  TRACK 69 AUDIO
    TITLE "0:"
    INDEX 01 01:19:56
  TRACK 70 AUDIO
    TITLE "4:cjc157_4423"
    INDEX 01 01:20:22
  TRACK 71 AUDIO
    TITLE "0:"
    INDEX 01 01:21:21
  TRACK 72 AUDIO
    TITLE "5:cjc157_4424"
    INDEX 01 01:21:69
  TRACK 73 AUDIO
    TITLE "0:"
    INDEX 01 01:23:50
  TRACK 74 AUDIO
    TITLE "5:cjc157_4425"
    INDEX 01 01:24:24
  TRACK 75 AUDIO
    TITLE "0:"
    INDEX 01 01:26:34
  TRACK 76 AUDIO
    TITLE "5:cjc157_4426"
    INDEX 01 01:27:14
  TRACK 77 AUDIO
    TITLE "0:"
    INDEX 01 01:28:39
  TRACK 78 AUDIO
    TITLE "3:cjc157_4427"
    INDEX 01 01:29:09
  TRACK 79 AUDIO
    TITLE "0:"
    INDEX 01 01:30:42
  TRACK 80 AUDIO
    TITLE "4:cjc157_4428"
    INDEX 01 01:31:12
  TRACK 81 AUDIO
    TITLE "0:"
    INDEX 01 01:32:13
  TRACK 82 AUDIO
    TITLE "5:cjc157_4429"
    INDEX 01 01:32:60
  TRACK 83 AUDIO
    TITLE "0:"
    INDEX 01 01:35:37
  TRACK 84 AUDIO
    TITLE "5:cjc157_4430"
    INDEX 01 01:36:15
  TRACK 85 AUDIO
    TITLE "0:"
    INDEX 01 01:38:12
